<?xml version="1.0" encoding="utf-8"?>
<!-- Generator: Adobe Illustrator 25.0.0, SVG Export Plug-In . SVG Version: 6.00 Build 0)  -->
<svg version="1.1" id="Capa_1" xmlns="http://www.w3.org/2000/svg" xmlns:xlink="http://www.w3.org/1999/xlink" x="0px" y="0px"
	 viewBox="0 0 306.8 306.8" style="enable-background:new 0 0 306.8 306.8;" xml:space="preserve">
<style type="text/css">
	.st0{fill:#FFFFFF;}
</style>
<g>
	<g>
		<g>
			<path class="st0" d="M267.7,104.5h-31.5l-17.4-26.2c-6.6-9.8-18-15.7-29.8-15.7h-72.2c-11.8,0-23.3,5.9-29.8,15.7l-17.4,26.2
				H38.1c-20,0-36.1,16.1-36.1,36.1v127.3c0,20,16.1,36.1,36.1,36.1h229.6c20,0,36.1-16.1,36.1-36.1V140.5
				C303.8,120.5,287.7,104.5,267.7,104.5z M152.9,274.4c-44.9,0-81.3-36.4-81.3-81.3s36.4-81,81.3-81s81.3,36.4,81.3,81.3
				C234.2,238,197.8,274.4,152.9,274.4z M263.1,155.3c-0.3,0-0.7,0-1.3,0h-13.1c-5.9-0.3-10.5-5.2-10.2-11.2
				c0.3-5.6,4.6-9.8,10.2-10.2h13.1c5.9-0.3,10.8,4.3,11.2,10.2C273.3,150,269,155,263.1,155.3z"/>
		</g>
	</g>
	<g>
		<g>
			<path class="st0" d="M152.9,148.1c-24.9,0-45.3,20.3-45.3,45.3s20.3,44.9,45.3,44.9s45.3-20.3,45.3-45.3
				C198.2,168.1,177.8,148.1,152.9,148.1z"/>
		</g>
	</g>
</g>
<g>
	<g>
		<g>
			<path class="st0" d="M259.6,7.8l-71,31.6c-5.3,2.4-7.8,8.6-5.4,14l20.1,45.2c2.4,5.3,8.6,7.8,14,5.4l71-31.6
				c5.3-2.4,7.8-8.6,5.4-14l-20.1-45.2C271.3,7.9,265,5.4,259.6,7.8z M279.5,43.8l-29.4-11.3c-1.8-0.7-3.9,0.2-4.6,2l-14.9,38.7
				l-15.4-5.9c-1.8-0.7-3.9,0.2-4.6,2l-5.9,15.4l-15.2-34.2c-0.8-1.8,0-3.9,1.8-4.7l71-31.6c1.8-0.8,3.9,0,4.7,1.8L279.5,43.8
				L279.5,43.8z"/>
		</g>
	</g>
	<g>
		<g>
			<circle class="st0" cx="218" cy="53.4" r="10.6"/>
		</g>
	</g>
</g>
</svg>
