<?xml version="1.0" encoding="utf-8"?>
<!-- Generator: Adobe Illustrator 25.0.0, SVG Export Plug-In . SVG Version: 6.00 Build 0)  -->
<svg version="1.1" id="Capa_1" xmlns="http://www.w3.org/2000/svg" xmlns:xlink="http://www.w3.org/1999/xlink" x="0px" y="0px"
	 viewBox="0 0 512 512" style="enable-background:new 0 0 512 512;" xml:space="preserve">
<style type="text/css">
	.st0{fill:#DE2324;}
	.st1{fill:#FFFFFF;}
</style>
<g>
	<circle class="st0" cx="257.6" cy="258.8" r="236.2"/>
</g>
<path class="st1" d="M351.5,352.6c-7.7,7.7-20.6,7.7-28.3,0L257.6,287L192,352.6c-7.7,7.7-20.6,7.7-28.3,0c-7.7-7.7-7.7-20.6,0-28.3
	l65.6-65.6l-65.6-65.6c-7.7-7.7-7.7-20.6,0-28.3c7.7-7.7,20.6-7.7,28.3,0l65.6,65.6l65.6-65.6c7.7-7.7,20.6-7.7,28.3,0
	s7.7,20.6,0,28.3l-65.6,65.6l65.6,65.6C359.2,332.1,359.2,344.9,351.5,352.6z"/>
</svg>
