<?xml version="1.0" encoding="utf-8"?>
<!-- Generator: Adobe Illustrator 25.0.0, SVG Export Plug-In . SVG Version: 6.00 Build 0)  -->
<svg version="1.1" id="Capa_1" xmlns="http://www.w3.org/2000/svg" xmlns:xlink="http://www.w3.org/1999/xlink" x="0px" y="0px"
	 viewBox="0 0 306.8 306.8" style="enable-background:new 0 0 306.8 306.8;" xml:space="preserve">
<style type="text/css">
	.st0{fill:#4C4C4C;}
</style>
<g>
	<g>
		<path class="st0" d="M303.8,40.9l-45.3,6.5L265,2.1l-34.4,34.4c-23.4-16-51.7-25.3-82.2-25.3C67.5,11.3,2,76.8,2,157.6
			s65.5,146.3,146.3,146.3c80.8,0,146.3-65.5,146.3-146.3c0-30.5-9.3-58.8-25.3-82.2L303.8,40.9z M148.3,267.3
			c-60.6,0-109.7-49.1-109.7-109.7S87.7,47.8,148.3,47.8c25.4,0,48.7,8.6,67.3,23.1l-26.2,26.2c-11.7-8-25.9-12.6-41.1-12.6
			c-40.4,0-73.2,32.8-73.2,73.2s32.8,73.2,73.2,73.2s73.2-32.8,73.2-73.2c0-15.2-4.7-29.4-12.6-41.1L235,90.3
			c14.4,18.6,23,41.9,23,67.3C258.1,218.2,208.9,267.3,148.3,267.3z M142.1,163.8c5.4,5.4,14,5.4,19.4,0l20.5-20.5
			c1.9,4.4,2.9,9.2,2.9,14.3c0,20.2-16.4,36.6-36.6,36.6s-36.6-16.4-36.6-36.6s16.4-36.6,36.6-36.6c5.1,0,9.9,1,14.3,2.9l-20.5,20.5
			C136.8,149.7,136.8,158.4,142.1,163.8z"/>
	</g>
</g>
</svg>
