<?xml version="1.0" encoding="utf-8"?>
<!-- Generator: Adobe Illustrator 25.0.0, SVG Export Plug-In . SVG Version: 6.00 Build 0)  -->
<svg version="1.1" id="Capa_1" xmlns="http://www.w3.org/2000/svg" xmlns:xlink="http://www.w3.org/1999/xlink" x="0px" y="0px"
	 viewBox="0 0 306.8 306.8" style="enable-background:new 0 0 306.8 306.8;" xml:space="preserve">
<style type="text/css">
	.st0{fill:#4C4C4C;}
</style>
<g>
	<path class="st0" d="M304.2,104.1V81.9H2.4v22.2h7.4v174.3H2.4v22.2h301.8v-22.2h-7.4V104.1H304.2z M144.7,278.4H87.6V167.5h57.1
		V278.4z M211.1,278.4h-57.1V167.5h57.1V278.4z"/>
</g>
<g>
	<path class="st0" d="M118.9,48.9c0-6.6-5.4-11.9-11.9-11.9c-6.6,0-11.9,5.4-11.9,11.9c0,6.6,5.4,11.9,11.9,11.9
		C113.6,60.8,118.9,55.4,118.9,48.9z"/>
	<path class="st0" d="M60.2,7.9v104.5h188.3V7.9H60.2z M227.1,76.3H83.6V73h23.8c11,0,16-6.6,23.4-15.5l6.9-8.4l-11.6-13.2
		c-2.8-4.1,2.2-8.3,5.5-4.6l10.7,12.2l9.9-12c3.1-3.8,8.3,0.2,5.6,4.4l-10.7,13l7.4,8.4l-4.7,5.5l-7.4-8.3l-6.1,7.5
		c-3,3.7-6.1,8.4-10.1,10.9h100.9V76.3z M88.2,48.9C88.2,38.5,96.6,30,107,30c10.4,0,18.8,8.5,18.8,18.8c0,10.4-8.5,18.8-18.8,18.8
		C96.6,67.7,88.2,59.2,88.2,48.9z M186.4,48.9c0-10.4,8.5-18.8,18.8-18.8c10.4,0,18.8,8.5,18.8,18.8c0,10.4-8.5,18.8-18.8,18.8
		C194.8,67.7,186.4,59.2,186.4,48.9z M227.1,26.5h-22.8c-11-0.3-16.2,6.8-23.7,15.5l-7.1,8.2l11.2,13.5c2.7,4.1-2.4,8.2-5.6,4.5
		l-10.4-12.4l-10.1,11.7c-3.2,3.7-8.3-0.4-5.5-4.5l11-12.8l-7.2-8.6l4.6-5.7l7.3,8.8l6.3-7.3c3.1-3.6,6.3-8.4,10.4-10.8H83.6v-3.3
		h143.5V26.5z"/>
	<path class="st0" d="M217.1,48.9c0-6.6-5.4-11.9-11.9-11.9c-6.6,0-11.9,5.4-11.9,11.9c0,6.6,5.4,11.9,11.9,11.9
		C211.8,60.8,217.1,55.4,217.1,48.9z"/>
</g>
</svg>
