<?xml version="1.0" encoding="utf-8"?>
<!-- Generator: Adobe Illustrator 25.0.0, SVG Export Plug-In . SVG Version: 6.00 Build 0)  -->
<svg version="1.1" id="Capa_1" xmlns="http://www.w3.org/2000/svg" xmlns:xlink="http://www.w3.org/1999/xlink" x="0px" y="0px"
	 viewBox="0 0 512 512" style="enable-background:new 0 0 512 512;" xml:space="preserve">
<style type="text/css">
	.st0{fill:#DE2324;}
	.st1{fill:#FFFFFF;}
</style>
<rect class="st0" width="512" height="512"/>
<g>
	<g>
		<g>
			<path class="st1" d="M423.8,164.7L268.5,89.8c-1.4-0.7-3-0.7-4.4,0l-155.2,74.9c-1.7,0.8-2.8,2.6-2.8,4.5v182
				c0,1.9,1.1,3.7,2.8,4.5l155.2,74.9c0.7,0.3,1.4,0.5,2.2,0.5c0.7,0,1.5-0.2,2.2-0.5l155.2-74.9c1.7-0.8,2.8-2.6,2.8-4.5v-182
				C426.6,167.3,425.5,165.5,423.8,164.7z M266.4,99.8l143.7,69.4l-41.7,20.1c-0.3-0.2-0.5-0.4-0.8-0.5l-142.7-68.9L266.4,99.8z
				 M213.5,125.6L357,194.8L327.6,209l-143.5-69.3L213.5,125.6z M360.4,204.3v52.5L332.9,270v-52.5L360.4,204.3z M416.6,348.1
				l-145.2,70.1V247.3l34.6-16.7c2.5-1.2,3.5-4.2,2.3-6.7c-1.2-2.5-4.2-3.5-6.7-2.3l-35.3,17l-13.9-6.7c-2.5-1.2-5.5-0.2-6.7,2.3
				c-1.2,2.5-0.2,5.5,2.3,6.7l13.2,6.4v170.9l-145.2-70.1V177.2l110.6,53.4c0.7,0.3,1.4,0.5,2.2,0.5c1.9,0,3.7-1,4.5-2.8
				c1.2-2.5,0.2-5.5-2.3-6.7l-108.4-52.3l49.8-24l150.4,72.6c0,0,0,0.1,0.1,0.1V278c0,1.7,0.9,3.3,2.3,4.2c0.8,0.5,1.7,0.8,2.7,0.8
				c0.7,0,1.5-0.2,2.2-0.5l37.5-18.1c1.7-0.8,2.8-2.6,2.8-4.5v-60.4l46.2-22.3L416.6,348.1L416.6,348.1z"/>
		</g>
	</g>
	<g>
		<g>
			<path class="st1" d="M157.5,328.7l-22.8-11c-2.5-1.2-5.5-0.2-6.7,2.3c-1.2,2.5-0.2,5.5,2.3,6.7l22.8,11c0.7,0.3,1.4,0.5,2.2,0.5
				c1.9,0,3.7-1,4.5-2.8C161,332.9,159.9,329.9,157.5,328.7z"/>
		</g>
	</g>
	<g>
		<g>
			<path class="st1" d="M178.4,315l-43.7-21.1c-2.5-1.2-5.5-0.2-6.7,2.3c-1.2,2.5-0.2,5.5,2.3,6.7l43.7,21.1
				c0.7,0.3,1.4,0.5,2.2,0.5c1.9,0,3.7-1,4.5-2.8C182,319.2,180.9,316.2,178.4,315z"/>
		</g>
	</g>
</g>
</svg>
